<?xml version="1.0" standalone="no"?>
<!DOCTYPE svg PUBLIC "-//W3C//DTD SVG 20010904//EN"
 "http://www.w3.org/TR/2001/REC-SVG-20010904/DTD/svg10.dtd">
<svg version="1.0" xmlns="http://www.w3.org/2000/svg"
 width="399.000000pt" height="399.000000pt" viewBox="0 0 399.000000 399.000000"
 preserveAspectRatio="xMidYMid meet">
<metadata>
Created by potrace 1.11, written by Peter Selinger 2001-2013
</metadata>
<g transform="translate(0.000000,399.000000) scale(0.100000,-0.100000)"
fill="#000000" stroke="none">
<path d="M1809 3476 c-2 -2 -51 -7 -109 -11 -103 -6 -171 -12 -220 -20 -14 -2
-41 -7 -60 -10 -412 -67 -760 -300 -910 -610 -75 -154 -84 -212 -85 -525 0
-151 3 -317 7 -368 l7 -92 -42 -21 c-86 -43 -206 -130 -260 -189 -32 -34 -72
-94 -94 -137 -36 -73 -38 -82 -38 -173 0 -91 2 -100 38 -173 89 -180 283 -318
607 -431 59 -20 115 -38 125 -41 11 -2 47 -11 80 -20 71 -20 58 -17 215 -48
303 -62 538 -82 935 -82 244 0 346 4 495 19 107 11 160 17 177 20 10 2 54 9
98 16 44 7 89 14 100 16 11 3 32 6 47 9 15 2 35 6 45 9 10 3 29 7 43 10 58 10
203 50 314 87 387 130 612 313 657 537 35 169 -67 366 -250 487 l-61 40 1 60
c1 33 6 70 10 83 5 12 5 22 0 22 -5 0 -5 19 -1 41 4 23 8 155 9 293 0 211 -2
264 -18 336 -35 155 -87 266 -182 385 -200 251 -567 429 -954 460 -44 4 -98 9
-120 12 -52 6 -601 14 -606 9z"/>
</g>
</svg>
